<mxfile host="Electron" agent="Mozilla/5.0 (Windows NT 10.0; Win64; x64) AppleWebKit/537.36 (KHTML, like Gecko) draw.io/26.2.2 Chrome/134.0.6998.178 Electron/35.1.2 Safari/537.36" version="26.2.2">
  <diagram name="Страница — 1" id="hJQ1nWnBzuLWKD3se8EN">
    <mxGraphModel dx="874" dy="792" grid="1" gridSize="10" guides="1" tooltips="1" connect="1" arrows="1" fold="1" page="1" pageScale="1" pageWidth="827" pageHeight="1169" math="0" shadow="0">
      <root>
        <mxCell id="0" />
        <mxCell id="1" parent="0" />
        <mxCell id="3GZ1_lVR16x9I3_9p-hL-1" value="" style="shape=umlLifeline;perimeter=lifelinePerimeter;whiteSpace=wrap;html=1;container=1;dropTarget=0;collapsible=0;recursiveResize=0;outlineConnect=0;portConstraint=eastwest;newEdgeStyle={&quot;curved&quot;:0,&quot;rounded&quot;:0};participant=umlActor;" vertex="1" parent="1">
          <mxGeometry x="160" y="80" width="20" height="770" as="geometry" />
        </mxCell>
        <mxCell id="3GZ1_lVR16x9I3_9p-hL-3" value="" style="html=1;points=[[0,0,0,0,5],[0,1,0,0,-5],[1,0,0,0,5],[1,1,0,0,-5]];perimeter=orthogonalPerimeter;outlineConnect=0;targetShapes=umlLifeline;portConstraint=eastwest;newEdgeStyle={&quot;curved&quot;:0,&quot;rounded&quot;:0};" vertex="1" parent="3GZ1_lVR16x9I3_9p-hL-1">
          <mxGeometry x="5" y="90" width="10" height="80" as="geometry" />
        </mxCell>
        <mxCell id="3GZ1_lVR16x9I3_9p-hL-8" value="" style="html=1;points=[[0,0,0,0,5],[0,1,0,0,-5],[1,0,0,0,5],[1,1,0,0,-5]];perimeter=orthogonalPerimeter;outlineConnect=0;targetShapes=umlLifeline;portConstraint=eastwest;newEdgeStyle={&quot;curved&quot;:0,&quot;rounded&quot;:0};" vertex="1" parent="3GZ1_lVR16x9I3_9p-hL-1">
          <mxGeometry x="5" y="200" width="10" height="80" as="geometry" />
        </mxCell>
        <mxCell id="3GZ1_lVR16x9I3_9p-hL-14" value="" style="html=1;points=[[0,0,0,0,5],[0,1,0,0,-5],[1,0,0,0,5],[1,1,0,0,-5]];perimeter=orthogonalPerimeter;outlineConnect=0;targetShapes=umlLifeline;portConstraint=eastwest;newEdgeStyle={&quot;curved&quot;:0,&quot;rounded&quot;:0};" vertex="1" parent="3GZ1_lVR16x9I3_9p-hL-1">
          <mxGeometry x="5" y="330" width="10" height="80" as="geometry" />
        </mxCell>
        <mxCell id="3GZ1_lVR16x9I3_9p-hL-2" value=":Sistema" style="shape=umlLifeline;perimeter=lifelinePerimeter;whiteSpace=wrap;html=1;container=1;dropTarget=0;collapsible=0;recursiveResize=0;outlineConnect=0;portConstraint=eastwest;newEdgeStyle={&quot;curved&quot;:0,&quot;rounded&quot;:0};" vertex="1" parent="1">
          <mxGeometry x="380" y="80" width="100" height="770" as="geometry" />
        </mxCell>
        <mxCell id="3GZ1_lVR16x9I3_9p-hL-5" value="" style="html=1;points=[[0,0,0,0,5],[0,1,0,0,-5],[1,0,0,0,5],[1,1,0,0,-5]];perimeter=orthogonalPerimeter;outlineConnect=0;targetShapes=umlLifeline;portConstraint=eastwest;newEdgeStyle={&quot;curved&quot;:0,&quot;rounded&quot;:0};" vertex="1" parent="3GZ1_lVR16x9I3_9p-hL-2">
          <mxGeometry x="45" y="90" width="10" height="80" as="geometry" />
        </mxCell>
        <mxCell id="3GZ1_lVR16x9I3_9p-hL-4" value="Alumno" style="text;html=1;align=center;verticalAlign=middle;whiteSpace=wrap;rounded=0;" vertex="1" parent="1">
          <mxGeometry x="140" y="130" width="60" height="30" as="geometry" />
        </mxCell>
        <mxCell id="3GZ1_lVR16x9I3_9p-hL-6" value="solicitarExamen()" style="html=1;verticalAlign=bottom;endArrow=block;curved=0;rounded=0;" edge="1" parent="1">
          <mxGeometry width="80" relative="1" as="geometry">
            <mxPoint x="175" y="189.9999999999999" as="sourcePoint" />
            <mxPoint x="425" y="189.9999999999999" as="targetPoint" />
          </mxGeometry>
        </mxCell>
        <mxCell id="3GZ1_lVR16x9I3_9p-hL-7" value="examenGenerado" style="html=1;verticalAlign=bottom;endArrow=open;dashed=1;endSize=8;curved=0;rounded=0;" edge="1" parent="1">
          <mxGeometry relative="1" as="geometry">
            <mxPoint x="425" y="229.9999999999999" as="sourcePoint" />
            <mxPoint x="175" y="229.9999999999999" as="targetPoint" />
          </mxGeometry>
        </mxCell>
        <mxCell id="3GZ1_lVR16x9I3_9p-hL-9" value="" style="html=1;points=[[0,0,0,0,5],[0,1,0,0,-5],[1,0,0,0,5],[1,1,0,0,-5]];perimeter=orthogonalPerimeter;outlineConnect=0;targetShapes=umlLifeline;portConstraint=eastwest;newEdgeStyle={&quot;curved&quot;:0,&quot;rounded&quot;:0};" vertex="1" parent="1">
          <mxGeometry x="425" y="280" width="10" height="80" as="geometry" />
        </mxCell>
        <mxCell id="3GZ1_lVR16x9I3_9p-hL-10" value="deseaRealizarlo()" style="html=1;verticalAlign=bottom;endArrow=block;curved=0;rounded=0;" edge="1" parent="1">
          <mxGeometry width="80" relative="1" as="geometry">
            <mxPoint x="175" y="299.9999999999999" as="sourcePoint" />
            <mxPoint x="425" y="299.9999999999999" as="targetPoint" />
          </mxGeometry>
        </mxCell>
        <mxCell id="3GZ1_lVR16x9I3_9p-hL-11" value="resultado" style="html=1;verticalAlign=bottom;endArrow=open;dashed=1;endSize=8;curved=0;rounded=0;" edge="1" parent="1">
          <mxGeometry relative="1" as="geometry">
            <mxPoint x="425" y="339.9999999999999" as="sourcePoint" />
            <mxPoint x="175" y="339.9999999999999" as="targetPoint" />
          </mxGeometry>
        </mxCell>
        <mxCell id="3GZ1_lVR16x9I3_9p-hL-12" value="loop[1,resultado]" style="shape=umlFrame;whiteSpace=wrap;html=1;pointerEvents=0;width=130;height=30;" vertex="1" parent="1">
          <mxGeometry x="20" y="160" width="430" height="210" as="geometry" />
        </mxCell>
        <mxCell id="3GZ1_lVR16x9I3_9p-hL-13" value="[resultado=false]" style="text;html=1;align=center;verticalAlign=middle;whiteSpace=wrap;rounded=0;" vertex="1" parent="1">
          <mxGeometry x="20" y="190" width="110" height="30" as="geometry" />
        </mxCell>
        <mxCell id="3GZ1_lVR16x9I3_9p-hL-15" value="" style="html=1;points=[[0,0,0,0,5],[0,1,0,0,-5],[1,0,0,0,5],[1,1,0,0,-5]];perimeter=orthogonalPerimeter;outlineConnect=0;targetShapes=umlLifeline;portConstraint=eastwest;newEdgeStyle={&quot;curved&quot;:0,&quot;rounded&quot;:0};" vertex="1" parent="1">
          <mxGeometry x="425" y="410" width="10" height="80" as="geometry" />
        </mxCell>
        <mxCell id="3GZ1_lVR16x9I3_9p-hL-16" value="mostrarPreguntas()" style="html=1;verticalAlign=bottom;endArrow=block;curved=0;rounded=0;" edge="1" parent="1">
          <mxGeometry width="80" relative="1" as="geometry">
            <mxPoint x="175" y="429.9999999999999" as="sourcePoint" />
            <mxPoint x="425" y="429.9999999999999" as="targetPoint" />
          </mxGeometry>
        </mxCell>
        <mxCell id="3GZ1_lVR16x9I3_9p-hL-17" value="preguntas" style="html=1;verticalAlign=bottom;endArrow=open;dashed=1;endSize=8;curved=0;rounded=0;" edge="1" parent="1">
          <mxGeometry relative="1" as="geometry">
            <mxPoint x="425" y="469.9999999999999" as="sourcePoint" />
            <mxPoint x="175" y="469.9999999999999" as="targetPoint" />
          </mxGeometry>
        </mxCell>
        <mxCell id="3GZ1_lVR16x9I3_9p-hL-18" value="" style="html=1;points=[[0,0,0,0,5],[0,1,0,0,-5],[1,0,0,0,5],[1,1,0,0,-5]];perimeter=orthogonalPerimeter;outlineConnect=0;targetShapes=umlLifeline;portConstraint=eastwest;newEdgeStyle={&quot;curved&quot;:0,&quot;rounded&quot;:0};" vertex="1" parent="1">
          <mxGeometry x="165" y="520" width="10" height="80" as="geometry" />
        </mxCell>
        <mxCell id="3GZ1_lVR16x9I3_9p-hL-19" value="" style="html=1;points=[[0,0,0,0,5],[0,1,0,0,-5],[1,0,0,0,5],[1,1,0,0,-5]];perimeter=orthogonalPerimeter;outlineConnect=0;targetShapes=umlLifeline;portConstraint=eastwest;newEdgeStyle={&quot;curved&quot;:0,&quot;rounded&quot;:0};" vertex="1" parent="1">
          <mxGeometry x="425" y="520" width="10" height="80" as="geometry" />
        </mxCell>
        <mxCell id="3GZ1_lVR16x9I3_9p-hL-20" value="corregir(preguntas: String[])" style="html=1;verticalAlign=bottom;endArrow=block;curved=0;rounded=0;" edge="1" parent="1">
          <mxGeometry width="80" relative="1" as="geometry">
            <mxPoint x="175" y="539.9999999999999" as="sourcePoint" />
            <mxPoint x="425" y="539.9999999999999" as="targetPoint" />
          </mxGeometry>
        </mxCell>
        <mxCell id="3GZ1_lVR16x9I3_9p-hL-21" value="nota" style="html=1;verticalAlign=bottom;endArrow=open;dashed=1;endSize=8;curved=0;rounded=0;" edge="1" parent="1">
          <mxGeometry relative="1" as="geometry">
            <mxPoint x="425" y="579.9999999999999" as="sourcePoint" />
            <mxPoint x="175" y="579.9999999999999" as="targetPoint" />
          </mxGeometry>
        </mxCell>
        <mxCell id="3GZ1_lVR16x9I3_9p-hL-22" value="" style="html=1;points=[[0,0,0,0,5],[0,1,0,0,-5],[1,0,0,0,5],[1,1,0,0,-5]];perimeter=orthogonalPerimeter;outlineConnect=0;targetShapes=umlLifeline;portConstraint=eastwest;newEdgeStyle={&quot;curved&quot;:0,&quot;rounded&quot;:0};" vertex="1" parent="1">
          <mxGeometry x="165" y="630" width="10" height="80" as="geometry" />
        </mxCell>
        <mxCell id="3GZ1_lVR16x9I3_9p-hL-23" value="" style="html=1;points=[[0,0,0,0,5],[0,1,0,0,-5],[1,0,0,0,5],[1,1,0,0,-5]];perimeter=orthogonalPerimeter;outlineConnect=0;targetShapes=umlLifeline;portConstraint=eastwest;newEdgeStyle={&quot;curved&quot;:0,&quot;rounded&quot;:0};" vertex="1" parent="1">
          <mxGeometry x="165" y="750" width="10" height="80" as="geometry" />
        </mxCell>
        <mxCell id="3GZ1_lVR16x9I3_9p-hL-24" value="" style="html=1;points=[[0,0,0,0,5],[0,1,0,0,-5],[1,0,0,0,5],[1,1,0,0,-5]];perimeter=orthogonalPerimeter;outlineConnect=0;targetShapes=umlLifeline;portConstraint=eastwest;newEdgeStyle={&quot;curved&quot;:0,&quot;rounded&quot;:0};" vertex="1" parent="1">
          <mxGeometry x="425" y="750" width="10" height="80" as="geometry" />
        </mxCell>
        <mxCell id="3GZ1_lVR16x9I3_9p-hL-25" value="" style="html=1;points=[[0,0,0,0,5],[0,1,0,0,-5],[1,0,0,0,5],[1,1,0,0,-5]];perimeter=orthogonalPerimeter;outlineConnect=0;targetShapes=umlLifeline;portConstraint=eastwest;newEdgeStyle={&quot;curved&quot;:0,&quot;rounded&quot;:0};" vertex="1" parent="1">
          <mxGeometry x="425" y="630" width="10" height="80" as="geometry" />
        </mxCell>
        <mxCell id="3GZ1_lVR16x9I3_9p-hL-26" value="aprobado()" style="html=1;verticalAlign=bottom;endArrow=block;curved=0;rounded=0;" edge="1" parent="1">
          <mxGeometry width="80" relative="1" as="geometry">
            <mxPoint x="175" y="649.9999999999999" as="sourcePoint" />
            <mxPoint x="425" y="649.9999999999999" as="targetPoint" />
          </mxGeometry>
        </mxCell>
        <mxCell id="3GZ1_lVR16x9I3_9p-hL-27" value="mensajeDiploma" style="html=1;verticalAlign=bottom;endArrow=open;dashed=1;endSize=8;curved=0;rounded=0;" edge="1" parent="1">
          <mxGeometry relative="1" as="geometry">
            <mxPoint x="425" y="689.9999999999999" as="sourcePoint" />
            <mxPoint x="175" y="689.9999999999999" as="targetPoint" />
          </mxGeometry>
        </mxCell>
        <mxCell id="3GZ1_lVR16x9I3_9p-hL-28" value="suspendido()" style="html=1;verticalAlign=bottom;endArrow=block;curved=0;rounded=0;" edge="1" parent="1">
          <mxGeometry width="80" relative="1" as="geometry">
            <mxPoint x="175" y="769.9999999999999" as="sourcePoint" />
            <mxPoint x="425" y="769.9999999999999" as="targetPoint" />
          </mxGeometry>
        </mxCell>
        <mxCell id="3GZ1_lVR16x9I3_9p-hL-29" value="fechaProximoExamen" style="html=1;verticalAlign=bottom;endArrow=open;dashed=1;endSize=8;curved=0;rounded=0;" edge="1" parent="1">
          <mxGeometry relative="1" as="geometry">
            <mxPoint x="425" y="809.9999999999999" as="sourcePoint" />
            <mxPoint x="175" y="809.9999999999999" as="targetPoint" />
          </mxGeometry>
        </mxCell>
        <mxCell id="3GZ1_lVR16x9I3_9p-hL-30" value="opt" style="shape=umlFrame;whiteSpace=wrap;html=1;pointerEvents=0;" vertex="1" parent="1">
          <mxGeometry x="30" y="610" width="480" height="240" as="geometry" />
        </mxCell>
        <mxCell id="3GZ1_lVR16x9I3_9p-hL-31" value="" style="endArrow=none;dashed=1;html=1;rounded=0;exitX=0.005;exitY=0.546;exitDx=0;exitDy=0;exitPerimeter=0;entryX=0.995;entryY=0.536;entryDx=0;entryDy=0;entryPerimeter=0;" edge="1" parent="1" source="3GZ1_lVR16x9I3_9p-hL-30" target="3GZ1_lVR16x9I3_9p-hL-30">
          <mxGeometry width="50" height="50" relative="1" as="geometry">
            <mxPoint x="240" y="680" as="sourcePoint" />
            <mxPoint x="290" y="630" as="targetPoint" />
          </mxGeometry>
        </mxCell>
        <mxCell id="3GZ1_lVR16x9I3_9p-hL-33" value="[&lt;span style=&quot;font-size: 11px; text-wrap-mode: nowrap; background-color: rgb(255, 255, 255);&quot;&gt;nota &amp;gt;= 5&lt;/span&gt;]" style="text;html=1;align=center;verticalAlign=middle;whiteSpace=wrap;rounded=0;" vertex="1" parent="1">
          <mxGeometry x="30" y="640" width="60" height="30" as="geometry" />
        </mxCell>
        <mxCell id="3GZ1_lVR16x9I3_9p-hL-34" value="[&lt;span style=&quot;font-size: 11px; text-wrap-mode: nowrap; background-color: rgb(255, 255, 255);&quot;&gt;nota &amp;lt;= 5&lt;/span&gt;]" style="text;html=1;align=center;verticalAlign=middle;whiteSpace=wrap;rounded=0;" vertex="1" parent="1">
          <mxGeometry x="30" y="750" width="60" height="30" as="geometry" />
        </mxCell>
      </root>
    </mxGraphModel>
  </diagram>
</mxfile>
